Patient4_TMGait_0pt8_01_left_18_GRF.mot
version=1
nRows=32
nColumns=19
inDegrees=no
endheader
time	F1x	F1y	F1z	M1x	M1y	M1z	F2x	F2y	F2z	M2x	M2y	M2z	EC1x	EC1y	EC1z	EC2x	EC2y	EC2z
19.41	-31.3191	3.9807	-0.97558	-3.3775	-7.2646	11.6456	-43.9353	758.8881	-81.7819	330.4821	103.0809	890.5753	-0.0592	0.0182	-0.0073	-0.0462	0.0165	0.9585
19.4212	-20.8327	3.4894	-0.53621	-2.5726	-4.9541	8.7312	-39.3452	749.7603	-74.6199	325.0157	96.3061	879.2919	-0.0592	0.0182	-0.0073	-0.0462	0.0165	0.9585
19.4324	-12.1078	3.1799	-0.23422	-1.9133	-2.9809	6.445	-34.702	740.5756	-68.4122	319.6563	89.9255	866.8377	-0.0592	0.0182	-0.0073	-0.0462	0.0165	0.9585
19.4436	-5.53	3.0406	-0.032629	-1.4324	-1.4775	4.8316	-30.2501	732.0298	-63.5187	314.793	84.2888	854.0282	-0.0592	0.0182	-0.0073	-0.0462	0.0165	0.9585
19.4549	-1.0691	3.0566	0.066489	-1.1279	-0.42688	3.8786	-26.1442	724.5842	-59.9531	310.6458	79.5128	841.5616	-0.0592	0.0182	-0.0073	-0.0462	0.0165	0.9585
19.4661	1.6435	3.1563	0.10944	-0.96484	0.22251	3.3925	-22.4359	718.4367	-57.5453	307.2866	75.564	829.8606	-0.0592	0.0182	-0.0073	-0.0462	0.0165	0.9585
19.4773	2.9823	3.3059	0.11975	-0.90642	0.54611	3.2882	-19.1154	713.6102	-56.0475	304.6928	72.329	819.1436	-0.0592	0.0182	-0.0073	-0.0462	0.0165	0.9585
19.4885	3.4148	3.4144	0.12223	-0.90263	0.63664	3.3436	-16.1122	710.0063	-55.2025	302.7867	69.6551	809.4366	-0.0592	0.0182	-0.0073	-0.0462	0.0165	0.9585
19.4997	3.2372	3.4307	0.14006	-0.90985	0.54783	3.4337	-13.3281	707.4563	-54.7971	301.4609	67.3931	800.6477	-0.0592	0.0182	-0.0073	-0.0462	0.0165	0.9585
19.5109	2.7787	3.2498	0.17647	-0.87528	0.36018	3.327	-10.6192	705.7317	-54.6459	300.5939	65.379	792.5837	-0.0592	0.0182	-0.0073	-0.0462	0.0165	0.9585
19.5221	2.168	2.7982	0.249	-0.75412	0.090169	2.9041	-7.8399	704.6478	-54.6133	300.0811	63.4671	785.0702	-0.0592	0.0182	-0.0073	-0.0462	0.0165	0.9585
19.5334	1.5737	1.9534	0.35019	-0.49982	-0.20955	1.9368	-4.8465	704.0471	-54.6045	299.8363	61.5221	777.9209	-0.0592	0.0182	-0.0073	-0.0462	0.0165	0.9585
19.5446	1.045	0.63068	0.48379	-0.075517	-0.52695	0.33645	-1.5022	703.8899	-54.5799	299.8172	59.45	771.1016	-0.0592	0.0182	-0.0073	-0.0462	0.0165	0.9585
19.5558	0.68641	-1.2489	0.62918	0.54298	-0.80485	-2.0397	2.2813	704.2504	-54.5329	300.0281	57.199	764.6944	-0.0592	0.0182	-0.0073	-0.0462	0.0165	0.9585
19.567	0.54443	-3.6219	0.74304	1.3384	-0.97446	-5.0783	6.5353	705.3412	-54.4821	300.5224	54.763	758.9429	-0.0592	0.0182	-0.0073	-0.0462	0.0165	0.9585
19.5782	0.73604	-6.3203	0.7879	2.2476	-0.9397	-8.5739	11.2005	707.4097	-54.4604	301.3626	52.1872	754.1467	-0.0592	0.0182	-0.0073	-0.0462	0.0165	0.9585
19.5894	1.3196	-8.9053	0.6686	3.1161	-0.55681	-11.9275	16.1436	710.6292	-54.5088	302.5796	49.555	750.534	-0.0592	0.0182	-0.0073	-0.0462	0.0165	0.9585
19.6006	2.4411	-10.6444	0.32032	3.6859	0.32101	-14.1943	21.2019	715.0181	-54.7019	304.1428	46.9936	748.1881	-0.0592	0.0182	-0.0073	-0.0462	0.0165	0.9585
19.6119	4.17	-10.3675	-0.40413	3.5498	1.8993	-13.8343	26.2633	720.3842	-55.098	305.953	44.5988	746.953	-0.0592	0.0182	-0.0073	-0.0462	0.0165	0.9585
19.6231	6.5889	-6.4811	-1.5969	2.1508	4.3329	-8.7661	31.2558	726.391	-55.7302	307.8619	42.4346	746.544	-0.0592	0.0182	-0.0073	-0.0462	0.0165	0.9585
19.6343	9.6176	3.0992	-3.3851	-1.2363	7.7488	3.7489	36.2054	732.4672	-56.5524	309.6517	40.4574	746.4149	-0.0592	0.0182	-0.0073	-0.0462	0.0165	0.9585
19.6455	13.0045	20.7135	-5.7882	-7.4236	12.0853	26.7734	41.1599	737.8161	-57.4392	311.0276	38.5434	745.807	-0.0592	0.0182	-0.0073	-0.0462	0.0165	0.9585
19.6567	16.1521	48.6449	-8.7281	-17.1929	17.0158	63.333	46.1764	741.2732	-58.2054	311.5629	36.5159	743.5706	-0.0592	0.0182	-0.0073	-0.0462	0.0165	0.9585
19.6679	18.0474	88.4148	-11.8928	-31.0533	21.7559	115.4361	51.2004	741.356	-58.5996	310.7015	34.1793	738.2963	-0.0592	0.0182	-0.0073	-0.0462	0.0165	0.9585
19.6791	17.1405	139.9617	-14.6639	-48.953	24.96	183.0368	56.1181	736.2857	-58.3365	307.7665	31.3359	728.2727	-0.0592	0.0182	-0.0073	-0.0462	0.0165	0.9585
19.6904	11.9945	201.1246	-16.225	-70.0929	25.0514	263.3684	60.6546	724.1842	-57.121	302.0274	27.8358	711.7414	-0.0592	0.0182	-0.0073	-0.0462	0.0165	0.9585
19.7016	2.5841	267.3951	-15.4607	-92.8391	20.5678	350.5091	64.4973	703.2587	-54.7379	292.781	23.6286	687.0423	-0.0592	0.0182	-0.0073	-0.0462	0.0165	0.9585
19.7128	-9.3229	332.0777	-11.2581	-114.834	10.7659	435.4675	67.1994	672.1621	-51.1056	279.4828	18.8304	653.0052	-0.0592	0.0182	-0.0073	-0.0462	0.0165	0.9585
19.724	-21.4276	389.4611	-3.6978	-134.1448	-3.3615	510.34	68.3706	630.2329	-46.3278	261.8551	13.7156	609.0952	-0.0592	0.0182	-0.0073	-0.0462	0.0165	0.9585
19.7352	-32.3135	438.3471	5.9024	-150.405	-19.6197	573.2172	67.6168	577.8997	-40.6554	240.0318	8.6771	555.866	-0.0592	0.0182	-0.0073	-0.0462	0.0165	0.9585
19.7464	-41.2411	480.4815	16.2258	-164.2928	-36.0327	626.2383	64.7165	516.5809	-34.4674	214.5574	4.1541	494.7331	-0.0592	0.0182	-0.0073	-0.0462	0.0165	0.9585
19.7576	-48.0069	518.5998	26.1103	-176.8156	-51.0245	673.0171	59.5942	448.6673	-28.1809	186.3738	0.5434	428.0392	-0.0592	0.0182	-0.0073	-0.0462	0.0165	0.9585
